<svg width="36" height="34" viewBox="0 0 36 34" fill="none" xmlns="http://www.w3.org/2000/svg">
<path d="M21.7005 8.78724C21.9445 8.98568 22.1944 9.18118 22.434 9.38698C22.6516 9.57366 22.8603 9.77357 23.1102 10.0029C23.535 7.45108 24.8462 5.73567 27.4009 5.25207C29.4632 4.86107 31.2066 5.58133 32.4148 7.27763C34.0038 9.50751 33.6981 11.73 32.0444 13.8526C34.511 15.4137 35.8986 17.5657 35.9985 20.5364C35.1313 20.5364 34.3331 20.5364 33.5041 20.5364C33.4026 20.0484 33.3409 19.5412 33.1924 19.062C32.1635 15.74 28.2711 14.3789 25.3974 16.3368C24.6727 16.8307 23.9819 17.376 23.1425 17.9978C23.1425 17.038 23.1675 16.1986 23.1381 15.3608C23.0646 13.3661 22.168 11.8256 20.4026 10.8966C18.6107 9.95437 16.8013 10.0646 15.1108 11.1862C13.6439 12.1607 12.9207 13.588 12.8604 15.3402C12.8325 16.1692 12.856 17.0012 12.856 17.9861C12.0505 17.3951 11.3493 16.8498 10.6187 16.3486C8.19778 14.6861 4.86398 15.3461 3.37054 17.8523C2.90898 18.6284 2.71348 19.5633 2.35923 20.5246C1.72275 20.5246 0.904 20.5246 0.00146484 20.5246C0.0911304 17.5745 1.47727 15.4284 3.95116 13.857C2.2725 11.6977 1.97705 9.42666 3.65423 7.18061C4.9169 5.49019 6.70433 4.81256 8.78722 5.28587C11.2214 5.83857 12.4826 7.51282 12.878 9.98671C13.369 9.56925 13.8217 9.18412 14.3186 8.76373C13.2396 7.53193 12.6766 6.11785 12.9074 4.47006C13.0823 3.18829 13.6586 2.0976 14.6552 1.2568C16.7175 -0.482124 19.5897 -0.407157 21.5433 1.42437C23.5938 3.34704 23.6585 6.08405 21.7005 8.78724ZM17.9625 7.70685C19.3707 7.75388 20.5319 6.62792 20.5628 5.18592C20.5922 3.79831 19.4942 2.63118 18.1139 2.58415C16.6734 2.53417 15.5107 3.60134 15.4445 5.03452C15.3769 6.49269 16.4749 7.65834 17.9625 7.70685ZM7.72887 7.73625C6.29569 7.72596 5.15797 8.84457 5.14915 10.2733C5.14033 11.7021 6.26042 12.8384 7.69213 12.8501C9.11942 12.8619 10.2571 11.7418 10.2718 10.3101C10.2851 8.88426 9.16058 7.74654 7.72887 7.73625ZM25.7281 10.2778C25.7208 11.7065 26.8438 12.8413 28.2741 12.8516C29.7014 12.8619 30.8376 11.7389 30.8494 10.3071C30.8611 8.87985 29.7366 7.74507 28.3034 7.73625C26.8703 7.72743 25.734 8.84898 25.7281 10.2778Z" fill="white"/>
<path d="M25.7443 33.3938C20.554 33.3938 15.4725 33.3938 10.3219 33.3938C10.2983 31.3933 11.0039 29.7131 12.3019 28.2594C13.5866 26.8203 15.2373 26.0486 17.2393 25.7385C14.8037 24.6889 13.7762 23.0294 14.2289 21.0479C14.6449 19.2282 16.3015 17.9376 18.1286 18.0096C19.9543 18.0801 21.5124 19.4457 21.8049 21.2273C22.1283 23.1984 21.0362 24.8668 18.7886 25.6944C23.0235 26.5807 25.3622 29.0634 25.7443 33.3938Z" fill="white"/>
</svg>
