<svg width="85" height="86" viewBox="0 0 85 86" fill="none" xmlns="http://www.w3.org/2000/svg">
<path d="M2.3771e-05 43.56C0.000768475 34.8431 2.69882 26.3401 7.72396 19.2174C12.7491 12.0948 19.8551 6.70171 28.067 3.778C28.1298 4.08506 28.2187 4.38607 28.333 4.6779C19.2384 7.88522 11.5623 14.1905 6.64956 22.4889C1.7368 30.7874 -0.0993918 40.5496 1.46273 50.0658C3.02485 59.5821 7.88567 68.2454 15.1936 74.5378C22.5015 80.8301 31.7904 84.3503 41.4331 84.4819C51.0758 84.6134 60.4574 81.3477 67.9342 75.257C75.411 69.1663 80.5062 60.639 82.3273 51.1689C84.1484 41.6988 82.5792 31.8899 77.8946 23.4606C73.21 15.0313 65.7088 8.51905 56.705 5.06486C56.829 4.77786 56.9294 4.48125 57.005 4.1779C64.2002 6.89124 70.5157 11.5219 75.2673 17.568C80.0189 23.6142 83.0253 30.845 83.961 38.4777C84.8966 46.1104 83.7257 53.8536 80.5751 60.8683C77.4245 67.8831 72.4145 73.902 66.0877 78.2729C59.7609 82.6438 52.3586 85.2001 44.6828 85.6647C37.0071 86.1293 29.3506 84.4845 22.5427 80.9086C15.7349 77.3328 10.0354 71.9621 6.06179 65.3786C2.08814 58.795 -0.00814294 51.2498 2.3771e-05 43.56ZM32.467 79.2309C32.522 75.3819 32.567 72.3689 32.567 72.3049C32.5507 69.9783 32.7179 67.6542 33.067 65.3539C29.267 64.5119 25.938 63.3478 23.677 60.5888C22.6053 59.1713 22.0805 57.4151 22.199 55.642C22.861 51.942 27.956 47.8848 32.344 45.0158C31.9167 47.4477 32.4428 49.9507 33.813 52.0048C32.0374 53.2168 30.4161 54.6406 28.985 56.2448C30.999 57.9228 33.215 59.2009 37.032 57.4269C37.505 57.1499 37.976 56.896 38.446 56.675C38.469 56.662 38.491 56.6509 38.515 56.6349V56.6398C38.9251 56.4476 39.3446 56.2765 39.772 56.1269C39.7783 56.1275 39.7847 56.1275 39.791 56.1269L41.312 57.727L41.966 58.3879L42.624 57.727L44.145 56.1269H44.167C45.7758 56.7295 47.2964 57.5455 48.688 58.5529C49.8916 59.3739 51.0185 60.302 52.055 61.3258H52.062C52.076 61.3378 52.126 61.3939 52.162 61.4259C53.8127 63.0409 55.1861 64.9166 56.227 66.978C56.8634 68.2575 57.4095 69.5801 57.861 70.936C58.5083 72.5502 59.0537 74.2034 59.494 75.8859C57.5807 76.9446 55.576 77.8289 53.5041 78.528C52.9834 76.2689 52.2387 74.0673 51.281 71.956C51.239 71.864 51.197 71.763 51.152 71.674L51.325 79.186C45.1498 80.837 38.6513 80.8527 32.468 79.2319L32.467 79.2309ZM32.927 46.6308C32.9341 44.8608 33.4655 43.1327 34.454 41.6645C35.4425 40.1962 36.8439 39.0539 38.4812 38.3815C40.1185 37.7091 41.9183 37.5367 43.6534 37.8864C45.3885 38.2361 46.9811 39.092 48.2302 40.3461C49.4792 41.6002 50.3288 43.1963 50.6715 44.9328C51.0142 46.6693 50.8347 48.4684 50.1557 50.1029C49.4767 51.7375 48.3287 53.1342 46.8565 54.1169C45.3843 55.0995 43.654 55.6239 41.884 55.6239C39.5043 55.6189 37.224 54.6691 35.5443 52.9833C33.8647 51.2975 32.9233 49.0137 32.927 46.634V46.6308ZM54.036 36.1239C53.794 35.9883 53.5818 35.8053 53.412 35.5859C53.2465 35.376 53.1183 35.1392 53.033 34.8859C52.9509 34.6336 52.9205 34.3673 52.944 34.1029C52.9659 33.8288 53.0479 33.5628 53.184 33.3239C53.3154 33.085 53.4949 32.8759 53.7113 32.7101C53.9277 32.5443 54.1762 32.4256 54.441 32.361C54.7079 32.2856 54.9873 32.2652 55.2624 32.3009C55.5374 32.3367 55.8023 32.4279 56.041 32.569C56.5219 32.8374 56.8802 33.2811 57.041 33.8078C57.1298 34.0638 57.1623 34.3361 57.1363 34.6059C57.1102 34.8756 57.0262 35.1365 56.89 35.3708C56.7586 35.6096 56.579 35.8185 56.3626 35.9843C56.1463 36.1501 55.8978 36.2692 55.633 36.3339C55.4485 36.3842 55.2583 36.41 55.067 36.4108C54.7044 36.4083 54.3488 36.3104 54.036 36.1269V36.1239ZM29.703 35.3708C29.4415 35.331 29.1907 35.2385 28.966 35.0988C28.732 34.9555 28.5326 34.7623 28.382 34.5329C28.228 34.3073 28.1224 34.0522 28.0722 33.7836C28.0219 33.5151 28.028 33.2389 28.09 32.9728C28.1422 32.7 28.2487 32.4406 28.4033 32.2099C28.558 31.9791 28.7575 31.7817 28.99 31.6298C29.4438 31.3189 30.0007 31.1968 30.5431 31.289C30.8108 31.3245 31.0676 31.4177 31.2957 31.5624C31.5238 31.7071 31.7178 31.8998 31.864 32.1269C32.0177 32.3527 32.123 32.6079 32.1734 32.8764C32.2238 33.1448 32.2182 33.4207 32.157 33.6869C32.1044 33.9595 31.9977 34.2186 31.8431 34.4491C31.6885 34.6797 31.4892 34.8769 31.257 35.029C31.0274 35.184 30.7695 35.2923 30.498 35.3478C30.3436 35.3788 30.1865 35.3947 30.029 35.3949C29.919 35.3956 29.8091 35.3886 29.7 35.3739L29.703 35.3708ZM40.679 33.7458C40.2478 33.57 39.8507 33.3201 39.506 33.007C39.1657 32.6953 38.8919 32.318 38.701 31.8979C38.5005 31.4638 38.3981 30.991 38.401 30.5129C38.3957 30.0377 38.4891 29.5668 38.6751 29.1296C38.8612 28.6924 39.136 28.2984 39.482 27.9728C39.8211 27.6293 40.2264 27.358 40.6732 27.1755C41.1201 26.9929 41.5993 26.9029 42.082 26.9108C43.0396 26.902 43.963 27.2661 44.657 27.9259C45.0096 28.2378 45.2905 28.6222 45.4804 29.0529C45.6703 29.4836 45.7647 29.9502 45.757 30.4208C45.7621 30.8958 45.6687 31.3666 45.4826 31.8036C45.2966 32.2406 45.0219 32.6344 44.676 32.9599C44.337 33.3035 43.9317 33.5747 43.4848 33.7572C43.0379 33.9398 42.5587 34.0299 42.076 34.0219C41.5964 34.0242 41.1212 33.9312 40.678 33.748L40.679 33.7458ZM55.456 30.373L55.95 29.4948C56.135 29.1601 56.3498 28.8428 56.592 28.5468C57.0208 28.0217 57.5748 27.6128 58.203 27.3578C58.5822 27.2043 58.9722 27.0792 59.37 26.9838L60.965 26.5788C61.3982 26.4845 61.8166 26.3322 62.209 26.1259C62.6237 25.894 62.9621 25.5466 63.183 25.1259C63.5134 24.5755 63.6174 23.9184 63.473 23.2929C63.3843 22.9645 63.2264 22.6589 63.01 22.3964C62.7935 22.1339 62.5235 21.9206 62.218 21.7709C61.8925 21.5793 61.529 21.4612 61.153 21.425C60.8036 21.3937 60.4515 21.4321 60.117 21.538C59.7835 21.6435 59.4746 21.8152 59.209 22.0429C58.939 22.2728 58.7057 22.5427 58.5171 22.8429L55.83 20.9799C56.294 20.3357 56.8698 19.7797 57.5301 19.3388C58.1324 18.9394 58.8087 18.6651 59.519 18.5319C60.2292 18.401 60.9579 18.4063 61.666 18.5478C62.4243 18.6981 63.1524 18.973 63.821 19.361C64.46 19.719 65.0382 20.176 65.534 20.715C66.0029 21.2218 66.3702 21.8137 66.6161 22.4589C66.8565 23.0987 66.9531 23.7837 66.899 24.465C66.8301 25.2205 66.5949 25.9512 66.21 26.6049C65.9704 27.0445 65.6705 27.4483 65.319 27.8049C65.0142 28.1066 64.6661 28.3612 64.286 28.56C63.8953 28.7621 63.4843 28.9227 63.06 29.039C62.6154 29.1616 62.13 29.2769 61.604 29.3849C61.1494 29.4729 60.77 29.5623 60.466 29.653C60.1868 29.7336 59.9182 29.8473 59.666 29.9919C59.4376 30.1277 59.2329 30.3 59.06 30.5019C58.8502 30.7552 58.6654 31.028 58.508 31.3168L58.17 31.9169L55.456 30.373ZM26.22 30.332C26.0048 30.0163 25.8191 29.6815 25.665 29.332C25.5319 29.025 25.4353 28.7034 25.377 28.3739C25.3197 28.0361 25.3042 27.6926 25.331 27.351C25.366 26.9419 25.4305 26.5357 25.524 26.1359L25.88 24.5229C25.9919 24.0924 26.0447 23.6485 26.037 23.2038C26.0002 22.6496 25.7926 22.1206 25.4426 21.6894C25.0927 21.2581 24.6177 20.9459 24.083 20.7958C23.7505 20.7279 23.4074 20.7322 23.0767 20.8083C22.746 20.8843 22.4354 21.0306 22.166 21.237C21.8486 21.4432 21.58 21.716 21.3791 22.0368C21.1939 22.3358 21.0698 22.6686 21.014 23.0158C20.9578 23.3627 20.9721 23.7177 21.0561 24.059C21.1389 24.4038 21.2737 24.7339 21.456 25.038L18.593 26.6088C18.2263 25.9027 17.9892 25.1366 17.893 24.3468C17.809 23.6269 17.8687 22.8975 18.069 22.2008C18.272 21.5054 18.6042 20.8545 19.048 20.2819C19.5216 19.6698 20.093 19.1399 20.739 18.7138C21.3445 18.3019 22.0115 17.9887 22.715 17.7858C23.3759 17.5941 24.0674 17.5309 24.752 17.5998C25.4297 17.6714 26.0828 17.8933 26.664 18.2489C27.3063 18.6504 27.8509 19.1901 28.258 19.8288C28.5432 20.2412 28.7685 20.6922 28.927 21.1679C29.0574 21.5772 29.1271 22.0033 29.134 22.4328C29.1383 22.8743 29.0961 23.3153 29.008 23.748C28.918 24.2026 28.8027 24.6899 28.662 25.2099C28.5353 25.6572 28.444 26.038 28.388 26.352C28.3339 26.6379 28.3148 26.9293 28.331 27.2199C28.3484 27.4854 28.4096 27.7463 28.512 27.9919C28.6428 28.2941 28.8029 28.5829 28.99 28.8539L29.372 29.4269L26.779 31.1679L26.22 30.332ZM39.32 24.0929V22.3368C39.3136 21.672 39.3675 21.0081 39.481 20.3529C39.5828 19.7811 39.7505 19.223 39.981 18.6899C40.2248 18.1462 40.5341 17.6345 40.902 17.1659C41.3456 16.6079 41.8296 16.083 42.35 15.5959L44.42 13.6098C44.995 13.0947 45.4979 12.5045 45.915 11.8549C46.3957 11.0154 46.6051 10.0478 46.5145 9.08464C46.4239 8.12152 46.0378 7.20992 45.409 6.47477C44.9943 6.0536 44.494 5.72647 43.942 5.5153C43.3899 5.30414 42.7989 5.21399 42.209 5.2509C41.5517 5.24107 40.9002 5.37494 40.3 5.64299C39.7445 5.89663 39.2446 6.25755 38.829 6.705C38.4144 7.15298 38.0935 7.67913 37.885 8.25285C37.6723 8.83082 37.5486 9.43779 37.518 10.0529L31.861 9.54484C32.014 8.16909 32.4116 6.83176 33.035 5.59587C33.6063 4.47382 34.3957 3.47714 35.357 2.66398C36.3206 1.85561 37.4285 1.23676 38.622 0.840008C39.8972 0.416511 41.2334 0.205978 42.577 0.216961C43.8491 0.209429 45.1142 0.404098 46.325 0.793866C47.4676 1.1577 48.5296 1.73789 49.453 2.50285C50.3635 3.26463 51.0937 4.21882 51.591 5.2968C52.1326 6.50072 52.4001 7.80992 52.374 9.1298C52.3881 10.0029 52.2797 10.8739 52.052 11.717C51.8461 12.4352 51.5362 13.1195 51.132 13.748C50.7127 14.3895 50.2274 14.9853 49.684 15.5258C49.1154 16.0951 48.479 16.6879 47.775 17.3039C47.161 17.8279 46.663 18.2896 46.281 18.6889C45.9268 19.0503 45.6176 19.4532 45.36 19.8888C45.1303 20.2909 44.9675 20.7275 44.878 21.1818C44.7766 21.7457 44.7301 22.318 44.739 22.8908V24.091L39.32 24.0929Z" fill="white"/>
</svg>
