<svg width="36" height="41" viewBox="0 0 36 41" fill="none" xmlns="http://www.w3.org/2000/svg">
<path d="M4.48769 39.6988C1.60169 37.3488 -2.56327 35.5288 2.08773 29.6988C4.05873 27.2278 5.69772 26.2668 6.93172 25.9798C8.40172 25.6378 10.3647 26.9798 11.3857 27.6388C12.0387 27.9648 12.771 28.0983 13.497 28.0235C14.2231 27.9488 14.9129 27.6691 15.4857 27.2169C16.5029 26.4039 17.4637 25.5229 18.3617 24.5799C19.4327 23.4579 20.2027 22.4638 20.1937 22.4698C20.1847 22.4758 21.0637 21.5887 22.0397 20.3697C22.8656 19.3411 23.6223 18.2587 24.3047 17.1297C24.6904 16.4686 24.9018 15.7204 24.9193 14.9552C24.9368 14.19 24.7598 13.4328 24.4047 12.7547C23.7047 11.7217 22.3047 9.73988 22.5227 8.15488C22.7027 6.82688 23.4857 5.02085 25.6627 2.75485C30.7977 -2.59015 32.8127 1.68677 35.2287 4.57077C37.6447 7.45477 34.3587 17.2619 25.6287 26.7389C18.2107 34.7939 10.2147 40.2049 6.2087 40.2049C5.5938 40.2402 4.98565 40.0613 4.48769 39.6988Z" fill="white"/>
</svg>
