<svg width="83" height="85" viewBox="0 0 83 85" fill="none" xmlns="http://www.w3.org/2000/svg">
<path d="M0 42.22C0 19.062 18.617 0.219971 41.5 0.219971C64.383 0.219971 83 19.062 83 42.22C83 65.378 64.383 84.22 41.5 84.22C18.617 84.22 0 65.379 0 42.22ZM0.921997 42.22C0.921997 64.865 19.122 83.2869 41.499 83.2869C63.876 83.2869 82.076 64.865 82.076 42.22C82.076 19.575 63.876 1.15308 41.499 1.15308C19.122 1.15308 0.921997 19.576 0.921997 42.22ZM56.294 53.0601C55.616 53.0601 55.067 52.7599 55.067 52.3889V48.8091H49.393V52.3889C49.393 52.7609 48.844 53.0601 48.167 53.0601H34.832C34.154 53.0601 33.605 52.7599 33.605 52.3889V48.8091H27.932V52.3889C27.932 52.7609 27.383 53.0601 26.706 53.0601H13.368C12.691 53.0601 12.142 52.7599 12.142 52.3889V45.1099C12.142 44.7399 12.691 44.439 13.368 44.439H19.841V42.875C19.8392 42.5778 19.8958 42.2831 20.0079 42.0078C20.1199 41.7325 20.2851 41.4822 20.4939 41.2708C20.7027 41.0593 20.9512 40.8911 21.225 40.7756C21.4989 40.6602 21.7928 40.5997 22.09 40.5979H41.5V36.2671H34.831C34.153 36.2671 33.604 35.9669 33.604 35.5959V28.3159C33.604 27.9459 34.153 27.646 34.831 27.646H48.168C48.845 27.646 49.394 27.9459 49.394 28.3159V35.5959C49.394 35.9659 48.845 36.2671 48.168 36.2671H41.5V40.5979H60.211C60.5083 40.5996 60.8023 40.66 61.0762 40.7754C61.3502 40.8908 61.5988 41.0588 61.8077 41.2703C62.0167 41.4817 62.1819 41.7322 62.294 42.0076C62.4061 42.2829 62.4628 42.5777 62.461 42.875V44.439H69.63C70.308 44.439 70.857 44.7389 70.857 45.1099V52.3889C70.857 52.7609 70.308 53.0601 69.63 53.0601H56.294Z" fill="white"/>
</svg>
