<svg xmlns="http://www.w3.org/2000/svg" width="36" height="39" viewBox="0 0 36 39" fill="none"><path d="M10.4339 22.1569C8.31213 20.3019 6.83368 18.1344 6.24375 15.4288C5.20956 10.6813 6.29231 6.51278 9.75417 3.2282C13.1359 0.0230312 17.1197 -0.832704 21.3755 0.824963C27.231 3.10522 31.4867 7.68878 35.9998 12.5234C32.2709 15.8926 28.6949 19.1259 25.0704 22.4028C31.1711 25.8155 34.7155 31.2676 35.0481 38.9974C33.7275 38.9974 32.5331 38.9974 31.3484 38.9974C29.5519 29.6766 25.1748 24.8778 18.1734 24.7625C16.355 24.7317 14.4274 25.0033 12.7305 25.6567C11.07 26.2946 9.43857 27.3758 8.16162 28.6671C6.85553 29.9866 5.76793 31.6878 4.99835 33.4249C4.24577 35.121 4.01515 37.0759 3.53689 38.982C2.49785 38.982 1.34227 38.982 0.00219727 38.982C0.317795 31.1779 3.89133 25.7643 10.4339 22.1569ZM30.2486 12.3569C27.4204 9.15941 24.3227 6.58708 20.6277 4.92686C19.5401 4.4375 18.2777 4.0455 17.1246 4.11724C13.8181 4.31964 11.3807 6.0926 10.2106 9.42331C9.05015 12.7207 9.64735 15.7798 12.0435 18.2394C14.4372 20.699 17.2848 21.2934 20.4117 19.8561C24.1673 18.1267 27.3451 15.5416 30.2486 12.3569Z" fill="white"></path></svg>