<svg xmlns="http://www.w3.org/2000/svg" width="84" height="86" viewBox="0 0 84 86" fill="none"><path d="M0 42.563C0 19.094 18.841 0.000976562 42 0.000976562C65.159 0.000976562 84 19.094 84 42.563C84 66.032 65.159 85.124 42 85.124C18.841 85.124 0 66.031 0 42.563ZM0.932983 42.563C0.932983 65.51 19.354 84.178 41.998 84.178C64.642 84.178 83.066 65.51 83.066 42.563C83.066 19.616 64.643 0.947021 41.998 0.947021C19.353 0.947021 0.934021 19.615 0.934021 42.563H0.932983ZM26.876 76.563L26.889 75.979C26.817 76.139 26.745 76.304 26.671 76.47C23.3097 74.9247 20.2013 72.8803 17.451 70.406C17.809 69.5613 18.1833 68.7487 18.574 67.968C21.3787 62.3053 25.6447 57.4942 30.931 54.032C33.2095 52.3677 35.7019 51.0182 38.341 50.02C38.3533 50.0211 38.3657 50.0211 38.378 50.02L40.871 52.675L41.943 53.7681L43.022 52.675L45.515 50.02C45.5273 50.021 45.5397 50.021 45.552 50.02C48.1911 51.0182 50.6835 52.3677 52.962 54.032C54.9363 55.3905 56.7832 56.9254 58.48 58.6179L58.493 58.6121C58.517 58.6341 58.598 58.7249 58.654 58.7849C61.3629 61.4608 63.6145 64.5631 65.319 67.968C65.6816 68.6927 66.0303 69.4439 66.365 70.2219C63.6539 72.699 60.5864 74.7553 57.265 76.322L57.211 76.2019C57.143 76.0509 57.075 75.8841 57.001 75.7371L57.017 76.437C52.294 78.6103 47.16 79.746 41.9611 79.7676C36.7621 79.7891 31.6188 78.6961 26.878 76.562L26.876 76.563ZM27.126 34.3191C27.1033 32.3766 27.4664 30.4489 28.194 28.6477C28.9217 26.8465 29.9995 25.2076 31.3651 23.8259C32.7307 22.4443 34.3569 21.3473 36.1495 20.5986C37.942 19.85 39.8654 19.4646 41.808 19.4646C43.7506 19.4646 45.6739 19.85 47.4665 20.5986C49.2591 21.3473 50.8853 22.4443 52.2509 23.8259C53.6165 25.2076 54.6943 26.8465 55.422 28.6477C56.1497 30.4489 56.5127 32.3766 56.49 34.3191C56.487 35.9841 56.2069 37.6369 55.661 39.21C55.5301 39.3884 55.3846 39.5556 55.226 39.71C53.055 41.789 48.407 42.201 45.785 42.26C45.6535 42.0358 45.4668 41.8492 45.2424 41.718C45.0181 41.5869 44.7638 41.5156 44.504 41.511H43.345C42.9315 41.511 42.535 41.6752 42.2426 41.9675C41.9502 42.2599 41.786 42.6566 41.786 43.0701C41.786 43.4835 41.9502 43.88 42.2426 44.1724C42.535 44.4647 42.9315 44.6289 43.345 44.6289H44.504C44.7784 44.6249 45.0466 44.5468 45.2802 44.4028C45.5138 44.2588 45.7041 44.0543 45.831 43.811C48.7275 43.8219 51.5974 43.2571 54.274 42.1499C52.9749 44.2955 51.1457 46.0708 48.9622 47.3049C46.7786 48.5391 44.3142 49.1907 41.806 49.197C37.8872 49.1706 34.1394 47.5889 31.3867 44.7996C28.6339 42.0103 27.1017 38.2418 27.127 34.323L27.126 34.3191ZM55.156 41.6909C55.5576 41.4446 55.9332 41.1581 56.277 40.8359C56.7874 40.3645 57.1932 39.7911 57.468 39.1528C57.7427 38.5146 57.8804 37.8257 57.872 37.1309C57.8727 37.0297 57.8533 36.9294 57.8152 36.8357C57.777 36.742 57.7208 36.6567 57.6497 36.5847C57.5785 36.5127 57.4939 36.4555 57.4006 36.4163C57.3073 36.377 57.2072 36.3565 57.106 36.356C57.0378 36.3602 56.9704 36.374 56.906 36.397C57.0002 35.709 57.0479 35.0155 57.049 34.321C57.0457 33.1737 56.9166 32.0301 56.664 30.9109C57.9307 31.3806 58.9958 32.2745 59.6783 33.4404C60.3608 34.6064 60.6187 35.9726 60.408 37.3071C60.1974 38.6416 59.5313 39.8619 58.5228 40.761C57.5144 41.66 56.2258 42.1823 54.876 42.239C54.982 42.066 55.06 41.8741 55.157 41.6941L55.156 41.6909Z" fill="white"></path></svg>