<svg xmlns="http://www.w3.org/2000/svg" width="83" height="85" viewBox="0 0 83 85" fill="none"><path d="M0 42.22C0 19.061 18.616 0.219971 41.5 0.219971C64.384 0.219971 83 19.062 83 42.22C83 65.378 64.383 84.22 41.5 84.22C18.617 84.22 0 65.378 0 42.22ZM0.921997 42.22C0.921997 64.864 19.122 83.2859 41.498 83.2859C63.874 83.2859 82.077 64.864 82.077 42.22C82.077 19.576 63.877 1.15295 41.498 1.15295C19.119 1.15295 0.921997 19.576 0.921997 42.22ZM27.922 62.1631C27.2703 62.1583 26.6472 61.8952 26.1892 61.4316C25.7312 60.968 25.4758 60.3416 25.479 59.6899V24.751C25.4753 24.0991 25.7305 23.4724 26.1885 23.0085C26.6466 22.5447 27.2701 22.2813 27.922 22.2769H54.575C55.2271 22.2814 55.8508 22.5445 56.3092 23.0083C56.7676 23.4721 57.0232 24.0989 57.02 24.751V27.3589C57.92 26.1399 60.238 26.0909 62.233 27.2769C63.1521 27.8003 63.92 28.5528 64.462 29.4609C64.7193 29.8484 64.8687 30.2976 64.8947 30.762C64.9207 31.2264 64.8224 31.6893 64.61 32.103L56.916 45.9661C56.9825 46.0779 57.0171 46.2058 57.016 46.3359V59.6899C57.0187 60.3418 56.7628 60.9681 56.3045 61.4316C55.8462 61.8952 55.2229 62.1583 54.571 62.1631H27.922ZM26.862 24.751V59.6899C26.8607 59.9727 26.9715 60.2444 27.1702 60.4456C27.3689 60.6467 27.6393 60.7608 27.922 60.7629H54.575C54.858 60.7611 55.1287 60.6472 55.3278 60.446C55.5269 60.2449 55.6381 59.9729 55.637 59.6899V48.27L53.328 52.4319C53.2511 52.5676 53.1306 52.6734 52.986 52.7319L47.227 55.1079C47.1444 55.1426 47.0556 55.1599 46.966 55.1589C46.8431 55.1593 46.7222 55.1269 46.616 55.0649C46.5237 55.0099 46.4453 54.9344 46.3868 54.8442C46.3284 54.7541 46.2915 54.6516 46.279 54.5449L45.533 48.2969C45.5146 48.1493 45.5437 47.9998 45.616 47.8699L48.459 42.748H33.639C33.4534 42.748 33.2753 42.6742 33.144 42.543C33.0127 42.4117 32.939 42.2335 32.939 42.0479C32.939 41.8622 33.0127 41.6843 33.144 41.553C33.2753 41.4217 33.4534 41.3479 33.639 41.3479H49.239L55.699 29.708C55.6601 29.6194 55.6401 29.5237 55.64 29.427V24.7458C55.6408 24.6056 55.6139 24.4668 55.561 24.3369C55.5081 24.207 55.4301 24.0887 55.3315 23.989C55.2328 23.8893 55.1155 23.81 54.9862 23.7556C54.857 23.7012 54.7183 23.6727 54.578 23.6719H27.923C27.7825 23.6728 27.6435 23.7016 27.514 23.7563C27.3846 23.8111 27.2673 23.8909 27.1688 23.9912C27.0703 24.0915 26.9926 24.2102 26.9401 24.3406C26.8876 24.471 26.8614 24.6104 26.863 24.751H26.862ZM31.905 56.5149C31.8714 56.382 31.8776 56.2422 31.9227 56.1128C31.9679 55.9834 32.05 55.87 32.159 55.7869C32.283 55.6489 32.65 55.171 33.006 54.708C34.929 52.208 36.746 49.9179 37.821 49.4519C37.9499 49.3958 38.0928 49.3808 38.2306 49.4087C38.3683 49.4366 38.4942 49.5061 38.591 49.6079C38.6888 49.7109 38.7534 49.841 38.7762 49.9812C38.799 50.1214 38.7791 50.2653 38.719 50.394C38.531 50.794 38.3643 51.163 38.219 51.501L38.619 51.0911C38.7293 50.9758 38.8764 50.9025 39.0349 50.8843C39.1935 50.866 39.3534 50.9038 39.487 50.991C39.6218 51.0788 39.7222 51.2104 39.7714 51.3635C39.8206 51.5167 39.8155 51.6822 39.757 51.832L39.391 52.7949L39.657 52.627C39.7813 52.5488 39.9274 52.5124 40.0739 52.5232C40.2203 52.534 40.3595 52.5914 40.471 52.687C40.5834 52.783 40.6624 52.9122 40.6969 53.0559C40.7314 53.1996 40.7195 53.3505 40.663 53.4871L40.648 53.5269C41.848 53.3489 43.812 53.19 44.813 53.866C44.9654 53.9705 45.0709 54.1305 45.1068 54.3118C45.1427 54.4931 45.1061 54.6812 45.005 54.8359C44.9553 54.9122 44.8909 54.9779 44.8156 55.0291C44.7403 55.0802 44.6555 55.1159 44.5663 55.134C44.4771 55.1522 44.3851 55.1525 44.2958 55.1348C44.2065 55.1171 44.1216 55.0818 44.046 55.031C43.464 54.64 41.611 54.74 40.161 55.031C39.9722 55.0722 39.7749 55.0487 39.601 54.9644C39.4271 54.88 39.2866 54.7397 39.202 54.5659L38.368 55.094C38.2452 55.172 38.1008 55.2087 37.9557 55.199C37.8105 55.1893 37.6723 55.1337 37.561 55.04C37.4743 54.9675 37.4064 54.875 37.3632 54.7705C37.32 54.666 37.3028 54.5525 37.313 54.4399L36.876 54.8899C36.7713 54.9995 36.633 55.0712 36.4831 55.0935C36.3331 55.1158 36.1801 55.0874 36.048 55.0129C35.9147 54.938 35.8095 54.8215 35.7487 54.6812C35.6878 54.5408 35.6746 54.3846 35.711 54.2361C35.8183 53.8346 35.9469 53.439 36.096 53.051C35.334 53.975 34.576 54.9589 34.108 55.5679C33.085 56.8989 33.045 56.9509 32.755 57.0249C32.6664 57.047 32.5743 57.0513 32.4841 57.0376C32.3938 57.0239 32.3071 56.9926 32.229 56.9453C32.151 56.898 32.083 56.8357 32.0291 56.762C31.9752 56.6883 31.9364 56.6046 31.915 56.5159L31.905 56.5149ZM33.638 38.8079C33.4524 38.8079 33.2743 38.7343 33.143 38.603C33.0118 38.4718 32.938 38.2936 32.938 38.1079C32.938 37.9223 33.0118 37.7443 33.143 37.613C33.2743 37.4818 33.4524 37.408 33.638 37.408H49.431C49.6166 37.408 49.7947 37.4818 49.926 37.613C50.0572 37.7443 50.131 37.9223 50.131 38.1079C50.131 38.2936 50.0572 38.4718 49.926 38.603C49.7947 38.7343 49.6166 38.8079 49.431 38.8079H33.638ZM33.638 34.864C33.4524 34.864 33.2743 34.7902 33.143 34.6589C33.0118 34.5277 32.938 34.3497 32.938 34.1641C32.938 33.9784 33.0118 33.8002 33.143 33.6689C33.2743 33.5377 33.4524 33.4639 33.638 33.4639H49.431C49.6166 33.4639 49.7947 33.5377 49.926 33.6689C50.0572 33.8002 50.131 33.9784 50.131 34.1641C50.131 34.3497 50.0572 34.5277 49.926 34.6589C49.7947 34.7902 49.6166 34.864 49.431 34.864H33.638ZM33.638 30.918C33.4524 30.918 33.2743 30.8442 33.143 30.7129C33.0118 30.5816 32.938 30.4037 32.938 30.218C32.938 30.0324 33.0118 29.8542 33.143 29.7229C33.2743 29.5916 33.4524 29.5181 33.638 29.5181H49.431C49.6166 29.5181 49.7947 29.5916 49.926 29.7229C50.0572 29.8542 50.131 30.0324 50.131 30.218C50.131 30.4037 50.0572 30.5816 49.926 30.7129C49.7947 30.8442 49.6166 30.918 49.431 30.918H33.638Z" fill="white"></path></svg>