<svg xmlns="http://www.w3.org/2000/svg" width="83" height="85" viewBox="0 0 83 85" fill="none"><path d="M0 42.22C0 19.062 18.617 0.219971 41.5 0.219971C64.383 0.219971 83 19.062 83 42.22C83 65.378 64.383 84.22 41.5 84.22C18.617 84.22 0 65.379 0 42.22ZM0.923004 42.22C0.923004 64.865 19.123 83.2869 41.5 83.2869C63.877 83.2869 82.078 64.865 82.078 42.22C82.078 19.575 63.878 1.15308 41.5 1.15308C19.122 1.15308 0.921997 19.576 0.921997 42.22H0.923004ZM32.415 58.908L24.15 50.543C23.7104 50.0961 23.4143 49.5282 23.2998 48.9119C23.1852 48.2956 23.2574 47.659 23.507 47.084C23.6602 46.7291 23.8783 46.4058 24.15 46.1309C24.4346 45.8416 24.7739 45.6119 25.1482 45.4551C25.5224 45.2982 25.9242 45.2175 26.33 45.2175C26.7358 45.2175 27.1375 45.2982 27.5118 45.4551C27.8861 45.6119 28.2254 45.8416 28.51 46.1309L36.775 54.4958C37.353 55.0846 37.6768 55.8768 37.6768 56.7019C37.6768 57.527 37.353 58.3192 36.775 58.908C36.4905 59.1974 36.1512 59.4273 35.7769 59.5842C35.4026 59.7411 35.0008 59.8218 34.595 59.8218C34.1892 59.8218 33.7874 59.7411 33.4131 59.5842C33.0388 59.4273 32.6995 59.1974 32.415 58.908ZM38.539 58.0759C38.7935 57.3284 38.8353 56.525 38.6598 55.7551C38.4842 54.9853 38.0983 54.2794 37.545 53.7161L29.28 45.3511C28.895 44.9593 28.4359 44.6482 27.9294 44.4358C27.423 44.2234 26.8792 44.114 26.33 44.114C25.7808 44.114 25.2371 44.2234 24.7306 44.4358C24.2241 44.6482 23.765 44.9593 23.38 45.3511C22.995 45.7386 22.6893 46.1973 22.48 46.7019L19.78 45.7019C19.4896 45.592 19.2396 45.3963 19.0634 45.1406C18.8872 44.8849 18.7932 44.5815 18.794 44.271V29.9429C18.7917 29.6954 18.8504 29.4513 18.9649 29.2319C19.0794 29.0125 19.2462 28.8247 19.4505 28.6851C19.6548 28.5454 19.8903 28.4582 20.1364 28.4312C20.3824 28.4041 20.6312 28.4381 20.861 28.53L26.088 30.658L34.619 26.282C35.4299 25.8666 36.3589 25.7418 37.2506 25.9287C38.1424 26.1156 38.9431 26.603 39.519 27.3091L40.174 28.0989L37.037 31.2729C36.267 32.0562 35.8355 33.1106 35.8355 34.209C35.8355 35.3073 36.267 36.3618 37.037 37.145L37.412 37.5269C37.7908 37.9112 38.2423 38.2165 38.7402 38.4248C39.238 38.6331 39.7723 38.7405 40.312 38.7405C40.8517 38.7405 41.386 38.6331 41.8838 38.4248C42.3817 38.2165 42.8332 37.9112 43.212 37.5269L44.317 36.407L52.143 45.8499C52.6181 46.427 53.2151 46.8919 53.8911 47.2109C54.5672 47.5299 55.3055 47.6953 56.053 47.6951H56.068C56.3837 48.623 56.3554 49.6334 55.9883 50.5422C55.6212 51.4511 54.9397 52.1977 54.068 52.646L42.701 58.4299C42.0412 58.7653 41.301 58.9101 40.5634 58.8479C39.8259 58.7857 39.1204 58.5189 38.526 58.0779L38.539 58.0759ZM55.468 46.5439C54.496 46.3962 53.6124 45.8957 52.986 45.1379L44.396 34.7739L42.451 36.7419C42.1734 37.0253 41.8421 37.2504 41.4765 37.4041C41.1108 37.5577 40.7181 37.637 40.3215 37.637C39.9249 37.637 39.5322 37.5577 39.1665 37.4041C38.8009 37.2504 38.4695 37.0253 38.192 36.7419L37.815 36.3621C37.2501 35.787 36.9335 35.0131 36.9335 34.207C36.9335 33.4009 37.2501 32.627 37.815 32.052L40.885 28.9451L43.985 25.8069C44.6556 25.126 45.5486 24.7091 46.5011 24.6316C47.4536 24.5541 48.4022 24.8215 49.174 25.385L56.032 30.397H62.7C62.899 30.398 63.0958 30.4383 63.2792 30.5154C63.4626 30.5925 63.629 30.705 63.7689 30.8464C63.9089 30.9879 64.0196 31.1554 64.0948 31.3396C64.1699 31.5238 64.2081 31.721 64.207 31.9199V43.647C64.2086 43.9928 64.0922 44.3288 63.8769 44.5994C63.6616 44.87 63.3603 45.0589 63.023 45.135L56.923 46.4958C56.6393 46.5586 56.3496 46.5903 56.059 46.5901C55.8607 46.5905 55.6628 46.575 55.467 46.5439H55.468Z" fill="white"></path></svg>