<svg xmlns="http://www.w3.org/2000/svg" width="28" height="38" viewBox="0 0 28 38" fill="none"><path d="M12.5841 36.6729C9.17693 29.731 0.783953 18.739 0.425758 17.3226L0.411321 17.2637C0.14283 16.1962 0.00469919 15.1002 0 13.9995C0 10.2866 1.47494 6.72567 4.10036 4.10025C6.72578 1.47482 10.2866 0 13.9995 0C17.7124 0 21.2733 1.47482 23.8987 4.10025C26.5241 6.72567 27.9991 10.2866 27.9991 13.9995C27.9959 15.5517 27.7265 17.0918 27.2025 18.5528L27.1591 18.6686C26.9061 19.3618 18.7594 29.8382 15.414 36.6729C15.0278 37.4694 14.5122 37.8682 13.9995 37.8682C13.4869 37.8682 12.9742 37.4694 12.5841 36.6729ZM6.10476 13.9995C6.08062 15.5663 6.52313 17.1049 7.37602 18.4194C8.22892 19.7339 9.45365 20.7648 10.8943 21.3811C12.3349 21.9975 13.9263 22.1714 15.4661 21.8806C17.0058 21.5898 18.4242 20.8475 19.5408 19.7481C20.6574 18.6487 21.4217 17.2421 21.7364 15.707C22.0511 14.172 21.9019 12.5781 21.308 11.1281C20.714 9.67802 19.7021 8.43726 18.401 7.56406C17.0999 6.69086 15.5684 6.22469 14.0015 6.2245C12.9724 6.21648 11.9517 6.4113 10.9979 6.79776C10.0441 7.18422 9.17575 7.75466 8.44245 8.47675C7.70916 9.19884 7.12526 10.0584 6.72416 11.0062C6.32305 11.954 6.11259 12.9714 6.10476 14.0005V13.9995Z" fill="white"></path></svg>